<svg width="18" height="19" viewBox="0 0 18 19" fill="none" xmlns="http://www.w3.org/2000/svg">
<path opacity="0.3" fill-rule="evenodd" clip-rule="evenodd" d="M2.43243 0.856567C1.08961 0.856567 0 1.92237 0 3.23584C0 4.54932 1.08961 5.63741 2.43243 5.63741C3.77525 5.63741 4.86486 4.54932 4.86486 3.23584C4.86402 1.92237 3.77441 0.856567 2.43243 0.856567ZM17.9955 18.0676V18.0668H18V11.406C18 8.14751 17.3022 5.63741 13.5129 5.63741C11.6913 5.63741 10.4689 6.64236 9.96982 7.59509H9.91713V5.94162H6.32432V18.0668H10.0654V12.0629C10.0654 10.4821 10.3635 8.95344 12.3108 8.95344C14.2295 8.95344 14.2582 10.7575 14.2582 12.1643V18.0676H17.9955ZM4.37838 6.59358H0.486486V18.0676H4.37838V6.59358Z" fill="black"/>
</svg>
